<svg width="533" height="14" viewBox="0 0 533 14" fill="none" xmlns="http://www.w3.org/2000/svg">
<path d="M6.79 1.2H8.4V11H6.79V6.758H2.59V11H0.98V1.2H2.59V5.218H6.79V1.2ZM13.5649 11.182C12.5382 11.182 11.6656 10.8273 10.9469 10.118C10.2282 9.40867 9.86891 8.536 9.86891 7.5C9.86891 6.464 10.2282 5.59133 10.9469 4.882C11.6656 4.17267 12.5382 3.818 13.5649 3.818C14.6009 3.818 15.4736 4.17267 16.1829 4.882C16.9016 5.59133 17.2609 6.464 17.2609 7.5C17.2609 8.536 16.9016 9.40867 16.1829 10.118C15.4736 10.8273 14.6009 11.182 13.5649 11.182ZM12.0109 9.082C12.4309 9.502 12.9489 9.712 13.5649 9.712C14.1809 9.712 14.6989 9.502 15.1189 9.082C15.5389 8.662 15.7489 8.13467 15.7489 7.5C15.7489 6.86533 15.5389 6.338 15.1189 5.918C14.6989 5.498 14.1809 5.288 13.5649 5.288C12.9489 5.288 12.4309 5.498 12.0109 5.918C11.5909 6.338 11.3809 6.86533 11.3809 7.5C11.3809 8.13467 11.5909 8.662 12.0109 9.082ZM26.2721 3.818C27.0654 3.818 27.7048 4.07467 28.1901 4.588C28.6754 5.10133 28.9181 5.792 28.9181 6.66V11H27.4061V6.758C27.4061 6.27267 27.2848 5.89933 27.0421 5.638C26.7994 5.36733 26.4681 5.232 26.0481 5.232C25.5814 5.232 25.2081 5.386 24.9281 5.694C24.6574 6.002 24.5221 6.464 24.5221 7.08V11H23.0101V6.758C23.0101 6.27267 22.8934 5.89933 22.6601 5.638C22.4361 5.36733 22.1141 5.232 21.6941 5.232C21.2368 5.232 20.8634 5.39067 20.5741 5.708C20.2848 6.016 20.1401 6.47333 20.1401 7.08V11H18.6281V4H20.1401V4.84C20.5881 4.15867 21.2554 3.818 22.1421 3.818C23.0381 3.818 23.7008 4.18667 24.1301 4.924C24.5968 4.18667 25.3108 3.818 26.2721 3.818ZM31.7263 8.144C31.8383 8.676 32.095 9.08667 32.4963 9.376C32.8976 9.656 33.3876 9.796 33.9663 9.796C34.769 9.796 35.371 9.50667 35.7723 8.928L37.0183 9.656C36.3276 10.6733 35.3056 11.182 33.9523 11.182C32.8136 11.182 31.8943 10.8367 31.1943 10.146C30.4943 9.446 30.1443 8.564 30.1443 7.5C30.1443 6.45467 30.4896 5.582 31.1803 4.882C31.871 4.17267 32.7576 3.818 33.8403 3.818C34.867 3.818 35.707 4.17733 36.3603 4.896C37.023 5.61467 37.3543 6.48733 37.3543 7.514C37.3543 7.67267 37.3356 7.88267 37.2983 8.144H31.7263ZM31.7123 6.912H35.8283C35.7256 6.34267 35.4876 5.91333 35.1143 5.624C34.7503 5.33467 34.321 5.19 33.8263 5.19C33.2663 5.19 32.7996 5.344 32.4263 5.652C32.053 5.96 31.815 6.38 31.7123 6.912Z" fill="#F25822"/>
<path d="M80.3067 11L79.5087 8.802H75.0987L74.3007 11H72.9147L76.5687 1.2H78.0387L81.6927 11H80.3067ZM75.5467 7.584H79.0607L77.2967 2.754L75.5467 7.584ZM86.5868 3.818C87.5668 3.818 88.4022 4.17733 89.0928 4.896C89.7835 5.60533 90.1288 6.47333 90.1288 7.5C90.1288 8.52667 89.7835 9.39933 89.0928 10.118C88.4022 10.8273 87.5668 11.182 86.5868 11.182C85.4295 11.182 84.5475 10.72 83.9408 9.796V11H82.7228V1.2H83.9408V5.204C84.5475 4.28 85.4295 3.818 86.5868 3.818ZM86.4328 10.006C87.1328 10.006 87.7208 9.768 88.1968 9.292C88.6728 8.80667 88.9108 8.20933 88.9108 7.5C88.9108 6.79067 88.6728 6.198 88.1968 5.722C87.7208 5.23667 87.1328 4.994 86.4328 4.994C85.7235 4.994 85.1308 5.23667 84.6548 5.722C84.1788 6.198 83.9408 6.79067 83.9408 7.5C83.9408 8.20933 84.1788 8.80667 84.6548 9.292C85.1308 9.768 85.7235 10.006 86.4328 10.006ZM97.4902 10.118C96.7715 10.8273 95.8989 11.182 94.8722 11.182C93.8455 11.182 92.9729 10.8273 92.2542 10.118C91.5449 9.40867 91.1902 8.536 91.1902 7.5C91.1902 6.464 91.5449 5.59133 92.2542 4.882C92.9729 4.17267 93.8455 3.818 94.8722 3.818C95.8989 3.818 96.7715 4.17267 97.4902 4.882C98.2089 5.59133 98.5682 6.464 98.5682 7.5C98.5682 8.536 98.2089 9.40867 97.4902 10.118ZM94.8722 9.992C95.5722 9.992 96.1602 9.754 96.6362 9.278C97.1122 8.802 97.3502 8.20933 97.3502 7.5C97.3502 6.79067 97.1122 6.198 96.6362 5.722C96.1602 5.246 95.5722 5.008 94.8722 5.008C94.1815 5.008 93.5982 5.246 93.1222 5.722C92.6462 6.198 92.4082 6.79067 92.4082 7.5C92.4082 8.20933 92.6462 8.802 93.1222 9.278C93.5982 9.754 94.1815 9.992 94.8722 9.992ZM104.834 4H106.052V11H104.834V9.992C104.339 10.7853 103.583 11.182 102.566 11.182C101.745 11.182 101.087 10.9253 100.592 10.412C100.097 9.88933 99.8501 9.18467 99.8501 8.298V4H101.068V8.228C101.068 8.79733 101.222 9.24067 101.53 9.558C101.838 9.866 102.263 10.02 102.804 10.02C103.411 10.02 103.901 9.83333 104.274 9.46C104.647 9.07733 104.834 8.494 104.834 7.71V4ZM111.714 5.176H109.852V8.97C109.852 9.31533 109.918 9.56267 110.048 9.712C110.188 9.852 110.398 9.92667 110.678 9.936C110.958 9.936 111.304 9.92667 111.714 9.908V11C110.65 11.14 109.871 11.056 109.376 10.748C108.882 10.4307 108.634 9.838 108.634 8.97V5.176H107.248V4H108.634V2.404L109.852 2.04V4H111.714V5.176ZM123.025 10.244C122.344 10.8693 121.462 11.182 120.379 11.182C119.297 11.182 118.41 10.8693 117.719 10.244C117.038 9.60933 116.697 8.76467 116.697 7.71V1.2H117.999V7.654C117.999 8.34467 118.205 8.89533 118.615 9.306C119.026 9.70733 119.614 9.908 120.379 9.908C121.145 9.908 121.733 9.70733 122.143 9.306C122.554 8.89533 122.759 8.34467 122.759 7.654V1.2H124.047V7.71C124.047 8.76467 123.707 9.60933 123.025 10.244ZM126.894 5.89C126.894 6.16067 127.029 6.38 127.3 6.548C127.571 6.70667 127.897 6.83733 128.28 6.94C128.663 7.03333 129.045 7.14533 129.428 7.276C129.811 7.39733 130.137 7.612 130.408 7.92C130.679 8.21867 130.814 8.606 130.814 9.082C130.814 9.71667 130.567 10.2253 130.072 10.608C129.587 10.9907 128.961 11.182 128.196 11.182C127.515 11.182 126.931 11.0327 126.446 10.734C125.961 10.4353 125.615 10.0387 125.41 9.544L126.46 8.942C126.572 9.278 126.782 9.544 127.09 9.74C127.398 9.936 127.767 10.034 128.196 10.034C128.597 10.034 128.929 9.95933 129.19 9.81C129.451 9.65133 129.582 9.40867 129.582 9.082C129.582 8.81133 129.447 8.59667 129.176 8.438C128.905 8.27 128.579 8.13933 128.196 8.046C127.813 7.94333 127.431 7.82667 127.048 7.696C126.665 7.56533 126.339 7.35067 126.068 7.052C125.797 6.75333 125.662 6.37067 125.662 5.904C125.662 5.29733 125.895 4.798 126.362 4.406C126.838 4.014 127.431 3.818 128.14 3.818C128.709 3.818 129.213 3.94867 129.652 4.21C130.1 4.462 130.436 4.81667 130.66 5.274L129.638 5.848C129.386 5.25067 128.887 4.952 128.14 4.952C127.795 4.952 127.501 5.036 127.258 5.204C127.015 5.36267 126.894 5.59133 126.894 5.89ZM170.546 11.182C169.631 11.182 168.847 10.9673 168.194 10.538C167.55 10.1087 167.097 9.52067 166.836 8.774L167.956 8.13C168.339 9.31533 169.211 9.908 170.574 9.908C171.246 9.908 171.759 9.77267 172.114 9.502C172.469 9.222 172.646 8.85333 172.646 8.396C172.646 7.92933 172.469 7.57933 172.114 7.346C171.759 7.11267 171.167 6.86533 170.336 6.604C169.925 6.47333 169.613 6.37067 169.398 6.296C169.183 6.212 168.913 6.09067 168.586 5.932C168.269 5.764 168.031 5.596 167.872 5.428C167.713 5.25067 167.569 5.022 167.438 4.742C167.317 4.462 167.256 4.14467 167.256 3.79C167.256 2.94067 167.555 2.26867 168.152 1.774C168.749 1.27 169.477 1.018 170.336 1.018C171.111 1.018 171.783 1.214 172.352 1.606C172.931 1.998 173.365 2.516 173.654 3.16L172.562 3.79C172.142 2.782 171.4 2.278 170.336 2.278C169.804 2.278 169.375 2.40867 169.048 2.67C168.721 2.93133 168.558 3.286 168.558 3.734C168.558 4.16333 168.712 4.49 169.02 4.714C169.328 4.938 169.86 5.17133 170.616 5.414C170.887 5.498 171.078 5.55867 171.19 5.596C171.302 5.63333 171.475 5.69867 171.708 5.792C171.951 5.88533 172.128 5.96 172.24 6.016C172.352 6.072 172.501 6.15133 172.688 6.254C172.884 6.35667 173.029 6.45467 173.122 6.548C173.215 6.64133 173.323 6.758 173.444 6.898C173.575 7.02867 173.668 7.164 173.724 7.304C173.78 7.444 173.827 7.60733 173.864 7.794C173.911 7.97133 173.934 8.16267 173.934 8.368C173.934 9.22667 173.621 9.91267 172.996 10.426C172.371 10.93 171.554 11.182 170.546 11.182ZM176.368 8.06C176.489 8.68533 176.774 9.17067 177.222 9.516C177.679 9.86133 178.239 10.034 178.902 10.034C179.826 10.034 180.498 9.69333 180.918 9.012L181.954 9.6C181.273 10.6547 180.246 11.182 178.874 11.182C177.763 11.182 176.858 10.8367 176.158 10.146C175.467 9.446 175.122 8.564 175.122 7.5C175.122 6.44533 175.463 5.568 176.144 4.868C176.825 4.168 177.707 3.818 178.79 3.818C179.817 3.818 180.652 4.182 181.296 4.91C181.949 5.62867 182.276 6.49667 182.276 7.514C182.276 7.69133 182.262 7.87333 182.234 8.06H176.368ZM178.79 4.966C178.137 4.966 177.595 5.15267 177.166 5.526C176.737 5.89 176.471 6.38 176.368 6.996H181.044C180.941 6.33333 180.68 5.82933 180.26 5.484C179.84 5.13867 179.35 4.966 178.79 4.966ZM184.894 5.176C185.295 4.308 186.023 3.874 187.078 3.874V5.148C186.481 5.12 185.967 5.27867 185.538 5.624C185.109 5.96933 184.894 6.52467 184.894 7.29V11H183.676V4H184.894V5.176ZM193.17 4H194.486L191.686 11H190.258L187.458 4H188.774L190.972 9.698L193.17 4ZM196.132 2.726C195.898 2.726 195.702 2.64667 195.544 2.488C195.385 2.32933 195.306 2.138 195.306 1.914C195.306 1.69 195.385 1.49867 195.544 1.34C195.702 1.172 195.898 1.088 196.132 1.088C196.356 1.088 196.547 1.172 196.706 1.34C196.864 1.49867 196.944 1.69 196.944 1.914C196.944 2.138 196.864 2.32933 196.706 2.488C196.547 2.64667 196.356 2.726 196.132 2.726ZM195.516 11V4H196.734V11H195.516ZM201.882 11.182C200.827 11.182 199.95 10.832 199.25 10.132C198.55 9.42267 198.2 8.54533 198.2 7.5C198.2 6.45467 198.55 5.582 199.25 4.882C199.95 4.17267 200.827 3.818 201.882 3.818C202.573 3.818 203.193 3.986 203.744 4.322C204.295 4.64867 204.705 5.092 204.976 5.652L203.954 6.24C203.777 5.86667 203.501 5.568 203.128 5.344C202.764 5.12 202.349 5.008 201.882 5.008C201.182 5.008 200.594 5.246 200.118 5.722C199.651 6.198 199.418 6.79067 199.418 7.5C199.418 8.2 199.651 8.788 200.118 9.264C200.594 9.74 201.182 9.978 201.882 9.978C202.349 9.978 202.769 9.87067 203.142 9.656C203.515 9.432 203.8 9.13333 203.996 8.76L205.032 9.362C204.733 9.91267 204.304 10.356 203.744 10.692C203.184 11.0187 202.563 11.182 201.882 11.182ZM206.993 8.06C207.114 8.68533 207.399 9.17067 207.847 9.516C208.304 9.86133 208.864 10.034 209.527 10.034C210.451 10.034 211.123 9.69333 211.543 9.012L212.579 9.6C211.898 10.6547 210.871 11.182 209.499 11.182C208.388 11.182 207.483 10.8367 206.783 10.146C206.092 9.446 205.747 8.564 205.747 7.5C205.747 6.44533 206.088 5.568 206.769 4.868C207.45 4.168 208.332 3.818 209.415 3.818C210.442 3.818 211.277 4.182 211.921 4.91C212.574 5.62867 212.901 6.49667 212.901 7.514C212.901 7.69133 212.887 7.87333 212.859 8.06H206.993ZM209.415 4.966C208.762 4.966 208.22 5.15267 207.791 5.526C207.362 5.89 207.096 6.38 206.993 6.996H211.669C211.566 6.33333 211.305 5.82933 210.885 5.484C210.465 5.13867 209.975 4.966 209.415 4.966ZM215.078 5.89C215.078 6.16067 215.213 6.38 215.484 6.548C215.754 6.70667 216.081 6.83733 216.464 6.94C216.846 7.03333 217.229 7.14533 217.612 7.276C217.994 7.39733 218.321 7.612 218.592 7.92C218.862 8.21867 218.998 8.606 218.998 9.082C218.998 9.71667 218.75 10.2253 218.256 10.608C217.77 10.9907 217.145 11.182 216.38 11.182C215.698 11.182 215.115 11.0327 214.63 10.734C214.144 10.4353 213.799 10.0387 213.594 9.544L214.644 8.942C214.756 9.278 214.966 9.544 215.274 9.74C215.582 9.936 215.95 10.034 216.38 10.034C216.781 10.034 217.112 9.95933 217.374 9.81C217.635 9.65133 217.766 9.40867 217.766 9.082C217.766 8.81133 217.63 8.59667 217.36 8.438C217.089 8.27 216.762 8.13933 216.38 8.046C215.997 7.94333 215.614 7.82667 215.232 7.696C214.849 7.56533 214.522 7.35067 214.252 7.052C213.981 6.75333 213.846 6.37067 213.846 5.904C213.846 5.29733 214.079 4.798 214.546 4.406C215.022 4.014 215.614 3.818 216.324 3.818C216.893 3.818 217.397 3.94867 217.836 4.21C218.284 4.462 218.62 4.81667 218.844 5.274L217.822 5.848C217.57 5.25067 217.07 4.952 216.324 4.952C215.978 4.952 215.684 5.036 215.442 5.204C215.199 5.36267 215.078 5.59133 215.078 5.89ZM261.208 2.432H256.868V5.61H261.026V6.842H256.868V11H255.566V1.2H261.208V2.432ZM263.512 8.06C263.634 8.68533 263.918 9.17067 264.366 9.516C264.824 9.86133 265.384 10.034 266.046 10.034C266.97 10.034 267.642 9.69333 268.062 9.012L269.098 9.6C268.417 10.6547 267.39 11.182 266.018 11.182C264.908 11.182 264.002 10.8367 263.302 10.146C262.612 9.446 262.266 8.564 262.266 7.5C262.266 6.44533 262.607 5.568 263.288 4.868C263.97 4.168 264.852 3.818 265.934 3.818C266.961 3.818 267.796 4.182 268.44 4.91C269.094 5.62867 269.42 6.49667 269.42 7.514C269.42 7.69133 269.406 7.87333 269.378 8.06H263.512ZM265.934 4.966C265.281 4.966 264.74 5.15267 264.31 5.526C263.881 5.89 263.615 6.38 263.512 6.996H268.188C268.086 6.33333 267.824 5.82933 267.404 5.484C266.984 5.13867 266.494 4.966 265.934 4.966ZM276.603 4H277.821V11H276.603V9.796C275.996 10.72 275.114 11.182 273.957 11.182C272.977 11.182 272.141 10.8273 271.451 10.118C270.76 9.39933 270.415 8.52667 270.415 7.5C270.415 6.47333 270.76 5.60533 271.451 4.896C272.141 4.17733 272.977 3.818 273.957 3.818C275.114 3.818 275.996 4.28 276.603 5.204V4ZM274.111 10.006C274.82 10.006 275.413 9.768 275.889 9.292C276.365 8.80667 276.603 8.20933 276.603 7.5C276.603 6.79067 276.365 6.198 275.889 5.722C275.413 5.23667 274.82 4.994 274.111 4.994C273.411 4.994 272.823 5.23667 272.347 5.722C271.871 6.198 271.633 6.79067 271.633 7.5C271.633 8.20933 271.871 8.80667 272.347 9.292C272.823 9.768 273.411 10.006 274.111 10.006ZM283.474 5.176H281.612V8.97C281.612 9.31533 281.678 9.56267 281.808 9.712C281.948 9.852 282.158 9.92667 282.438 9.936C282.718 9.936 283.064 9.92667 283.474 9.908V11C282.41 11.14 281.631 11.056 281.136 10.748C280.642 10.4307 280.394 9.838 280.394 8.97V5.176H279.008V4H280.394V2.404L281.612 2.04V4H283.474V5.176ZM289.787 4H291.005V11H289.787V9.992C289.293 10.7853 288.537 11.182 287.519 11.182C286.698 11.182 286.04 10.9253 285.545 10.412C285.051 9.88933 284.803 9.18467 284.803 8.298V4H286.021V8.228C286.021 8.79733 286.175 9.24067 286.483 9.558C286.791 9.866 287.216 10.02 287.757 10.02C288.364 10.02 288.854 9.83333 289.227 9.46C289.601 9.07733 289.787 8.494 289.787 7.71V4ZM294.078 5.176C294.479 4.308 295.207 3.874 296.262 3.874V5.148C295.664 5.12 295.151 5.27867 294.722 5.624C294.292 5.96933 294.078 6.52467 294.078 7.29V11H292.86V4H294.078V5.176ZM297.924 8.06C298.046 8.68533 298.33 9.17067 298.778 9.516C299.236 9.86133 299.796 10.034 300.458 10.034C301.382 10.034 302.054 9.69333 302.474 9.012L303.51 9.6C302.829 10.6547 301.802 11.182 300.43 11.182C299.32 11.182 298.414 10.8367 297.714 10.146C297.024 9.446 296.678 8.564 296.678 7.5C296.678 6.44533 297.019 5.568 297.7 4.868C298.382 4.168 299.264 3.818 300.346 3.818C301.373 3.818 302.208 4.182 302.852 4.91C303.506 5.62867 303.832 6.49667 303.832 7.514C303.832 7.69133 303.818 7.87333 303.79 8.06H297.924ZM300.346 4.966C299.693 4.966 299.152 5.15267 298.722 5.526C298.293 5.89 298.027 6.38 297.924 6.996H302.6C302.498 6.33333 302.236 5.82933 301.816 5.484C301.396 5.13867 300.906 4.966 300.346 4.966ZM306.009 5.89C306.009 6.16067 306.144 6.38 306.415 6.548C306.686 6.70667 307.012 6.83733 307.395 6.94C307.778 7.03333 308.16 7.14533 308.543 7.276C308.926 7.39733 309.252 7.612 309.523 7.92C309.794 8.21867 309.929 8.606 309.929 9.082C309.929 9.71667 309.682 10.2253 309.187 10.608C308.702 10.9907 308.076 11.182 307.311 11.182C306.63 11.182 306.046 11.0327 305.561 10.734C305.076 10.4353 304.73 10.0387 304.525 9.544L305.575 8.942C305.687 9.278 305.897 9.544 306.205 9.74C306.513 9.936 306.882 10.034 307.311 10.034C307.712 10.034 308.044 9.95933 308.305 9.81C308.566 9.65133 308.697 9.40867 308.697 9.082C308.697 8.81133 308.562 8.59667 308.291 8.438C308.02 8.27 307.694 8.13933 307.311 8.046C306.928 7.94333 306.546 7.82667 306.163 7.696C305.78 7.56533 305.454 7.35067 305.183 7.052C304.912 6.75333 304.777 6.37067 304.777 5.904C304.777 5.29733 305.01 4.798 305.477 4.406C305.953 4.014 306.546 3.818 307.255 3.818C307.824 3.818 308.328 3.94867 308.767 4.21C309.215 4.462 309.551 4.81667 309.775 5.274L308.753 5.848C308.501 5.25067 308.002 4.952 307.255 4.952C306.91 4.952 306.616 5.036 306.373 5.204C306.13 5.36267 306.009 5.59133 306.009 5.89ZM352.769 1.2V2.432H349.871V11H348.583V2.432H345.699V1.2H352.769ZM353.514 8.06C353.636 8.68533 353.92 9.17067 354.368 9.516C354.826 9.86133 355.386 10.034 356.048 10.034C356.972 10.034 357.644 9.69333 358.064 9.012L359.1 9.6C358.419 10.6547 357.392 11.182 356.02 11.182C354.91 11.182 354.004 10.8367 353.304 10.146C352.614 9.446 352.268 8.564 352.268 7.5C352.268 6.44533 352.609 5.568 353.29 4.868C353.972 4.168 354.854 3.818 355.936 3.818C356.963 3.818 357.798 4.182 358.442 4.91C359.096 5.62867 359.422 6.49667 359.422 7.514C359.422 7.69133 359.408 7.87333 359.38 8.06H353.514ZM355.936 4.966C355.283 4.966 354.742 5.15267 354.312 5.526C353.883 5.89 353.617 6.38 353.514 6.996H358.19C358.088 6.33333 357.826 5.82933 357.406 5.484C356.986 5.13867 356.496 4.966 355.936 4.966ZM366.605 4H367.823V11H366.605V9.796C365.998 10.72 365.116 11.182 363.959 11.182C362.979 11.182 362.143 10.8273 361.453 10.118C360.762 9.39933 360.417 8.52667 360.417 7.5C360.417 6.47333 360.762 5.60533 361.453 4.896C362.143 4.17733 362.979 3.818 363.959 3.818C365.116 3.818 365.998 4.28 366.605 5.204V4ZM364.113 10.006C364.822 10.006 365.415 9.768 365.891 9.292C366.367 8.80667 366.605 8.20933 366.605 7.5C366.605 6.79067 366.367 6.198 365.891 5.722C365.415 5.23667 364.822 4.994 364.113 4.994C363.413 4.994 362.825 5.23667 362.349 5.722C361.873 6.198 361.635 6.79067 361.635 7.5C361.635 8.20933 361.873 8.80667 362.349 9.292C362.825 9.768 363.413 10.006 364.113 10.006ZM377.228 3.818C378.012 3.818 378.647 4.07467 379.132 4.588C379.617 5.092 379.86 5.778 379.86 6.646V11H378.642V6.688C378.642 6.14667 378.502 5.72667 378.222 5.428C377.942 5.12933 377.569 4.98 377.102 4.98C376.579 4.98 376.159 5.15733 375.842 5.512C375.534 5.85733 375.38 6.38933 375.38 7.108V11H374.162V6.688C374.162 6.14667 374.027 5.72667 373.756 5.428C373.495 5.12933 373.135 4.98 372.678 4.98C372.165 4.98 371.735 5.15733 371.39 5.512C371.054 5.86667 370.886 6.39867 370.886 7.108V11H369.668V4H370.886V4.938C371.362 4.19133 372.057 3.818 372.972 3.818C373.915 3.818 374.601 4.21467 375.03 5.008C375.515 4.21467 376.248 3.818 377.228 3.818ZM422.275 5.918C422.723 6.13267 423.078 6.44067 423.339 6.842C423.61 7.24333 423.745 7.70533 423.745 8.228C423.745 9.012 423.47 9.67 422.919 10.202C422.368 10.734 421.696 11 420.903 11H416.675V1.2H420.595C421.36 1.2 422.009 1.45667 422.541 1.97C423.073 2.48333 423.339 3.118 423.339 3.874C423.339 4.742 422.984 5.42333 422.275 5.918ZM420.595 2.418H417.977V5.414H420.595C421.006 5.414 421.351 5.26933 421.631 4.98C421.911 4.69067 422.051 4.336 422.051 3.916C422.051 3.50533 421.906 3.15533 421.617 2.866C421.337 2.56733 420.996 2.418 420.595 2.418ZM420.903 9.782C421.342 9.782 421.71 9.628 422.009 9.32C422.308 9.012 422.457 8.634 422.457 8.186C422.457 7.74733 422.303 7.374 421.995 7.066C421.696 6.758 421.332 6.604 420.903 6.604H417.977V9.782H420.903ZM425.162 11V0.78H426.38V11H425.162ZM434.146 10.118C433.428 10.8273 432.555 11.182 431.528 11.182C430.502 11.182 429.629 10.8273 428.91 10.118C428.201 9.40867 427.846 8.536 427.846 7.5C427.846 6.464 428.201 5.59133 428.91 4.882C429.629 4.17267 430.502 3.818 431.528 3.818C432.555 3.818 433.428 4.17267 434.146 4.882C434.865 5.59133 435.224 6.464 435.224 7.5C435.224 8.536 434.865 9.40867 434.146 10.118ZM431.528 9.992C432.228 9.992 432.816 9.754 433.292 9.278C433.768 8.802 434.006 8.20933 434.006 7.5C434.006 6.79067 433.768 6.198 433.292 5.722C432.816 5.246 432.228 5.008 431.528 5.008C430.838 5.008 430.254 5.246 429.778 5.722C429.302 6.198 429.064 6.79067 429.064 7.5C429.064 8.20933 429.302 8.802 429.778 9.278C430.254 9.754 430.838 9.992 431.528 9.992ZM442.47 4H443.674V10.706C443.674 11.742 443.324 12.5447 442.624 13.114C441.924 13.6927 441.084 13.982 440.104 13.982C439.32 13.982 438.644 13.8327 438.074 13.534C437.505 13.2447 437.076 12.8247 436.786 12.274L437.85 11.672C438.233 12.456 438.994 12.848 440.132 12.848C440.86 12.848 441.43 12.6567 441.84 12.274C442.26 11.8913 442.47 11.3687 442.47 10.706V9.712C441.854 10.6453 440.977 11.112 439.838 11.112C438.84 11.112 437.995 10.7573 437.304 10.048C436.614 9.33867 436.268 8.47533 436.268 7.458C436.268 6.44067 436.614 5.582 437.304 4.882C437.995 4.17267 438.84 3.818 439.838 3.818C440.986 3.818 441.864 4.28 442.47 5.204V4ZM438.2 9.236C438.676 9.712 439.269 9.95 439.978 9.95C440.688 9.95 441.28 9.712 441.756 9.236C442.232 8.76 442.47 8.16733 442.47 7.458C442.47 6.758 442.232 6.17 441.756 5.694C441.28 5.218 440.688 4.98 439.978 4.98C439.269 4.98 438.676 5.218 438.2 5.694C437.724 6.17 437.486 6.758 437.486 7.458C437.486 8.16733 437.724 8.76 438.2 9.236ZM485.252 11.182C483.768 11.182 482.54 10.692 481.57 9.712C480.608 8.732 480.128 7.528 480.128 6.1C480.128 4.672 480.608 3.468 481.57 2.488C482.54 1.508 483.768 1.018 485.252 1.018C486.148 1.018 486.969 1.23267 487.716 1.662C488.472 2.09133 489.06 2.67 489.48 3.398L488.346 4.056C488.066 3.51467 487.646 3.08533 487.086 2.768C486.535 2.44133 485.924 2.278 485.252 2.278C484.122 2.278 483.198 2.642 482.48 3.37C481.77 4.098 481.416 5.008 481.416 6.1C481.416 7.18267 481.77 8.088 482.48 8.816C483.198 9.544 484.122 9.908 485.252 9.908C485.924 9.908 486.535 9.74933 487.086 9.432C487.646 9.10533 488.066 8.676 488.346 8.144L489.48 8.788C489.069 9.516 488.486 10.0993 487.73 10.538C486.974 10.9673 486.148 11.182 485.252 11.182ZM496.709 10.118C495.99 10.8273 495.118 11.182 494.091 11.182C493.064 11.182 492.192 10.8273 491.473 10.118C490.764 9.40867 490.409 8.536 490.409 7.5C490.409 6.464 490.764 5.59133 491.473 4.882C492.192 4.17267 493.064 3.818 494.091 3.818C495.118 3.818 495.99 4.17267 496.709 4.882C497.428 5.59133 497.787 6.464 497.787 7.5C497.787 8.536 497.428 9.40867 496.709 10.118ZM494.091 9.992C494.791 9.992 495.379 9.754 495.855 9.278C496.331 8.802 496.569 8.20933 496.569 7.5C496.569 6.79067 496.331 6.198 495.855 5.722C495.379 5.246 494.791 5.008 494.091 5.008C493.4 5.008 492.817 5.246 492.341 5.722C491.865 6.198 491.627 6.79067 491.627 7.5C491.627 8.20933 491.865 8.802 492.341 9.278C492.817 9.754 493.4 9.992 494.091 9.992ZM502.709 3.818C503.53 3.818 504.188 4.07933 504.683 4.602C505.177 5.11533 505.425 5.81533 505.425 6.702V11H504.207V6.772C504.207 6.20267 504.053 5.764 503.745 5.456C503.437 5.13867 503.012 4.98 502.471 4.98C501.864 4.98 501.374 5.17133 501.001 5.554C500.627 5.92733 500.441 6.506 500.441 7.29V11H499.223V4H500.441V5.008C500.935 4.21467 501.691 3.818 502.709 3.818ZM510.933 5.176H509.071V8.97C509.071 9.31533 509.137 9.56267 509.267 9.712C509.407 9.852 509.617 9.92667 509.897 9.936C510.177 9.936 510.523 9.92667 510.933 9.908V11C509.869 11.14 509.09 11.056 508.595 10.748C508.101 10.4307 507.853 9.838 507.853 8.97V5.176H506.467V4H507.853V2.404L509.071 2.04V4H510.933V5.176ZM517.816 4H519.034V11H517.816V9.796C517.209 10.72 516.327 11.182 515.17 11.182C514.19 11.182 513.354 10.8273 512.664 10.118C511.973 9.39933 511.628 8.52667 511.628 7.5C511.628 6.47333 511.973 5.60533 512.664 4.896C513.354 4.17733 514.19 3.818 515.17 3.818C516.327 3.818 517.209 4.28 517.816 5.204V4ZM515.324 10.006C516.033 10.006 516.626 9.768 517.102 9.292C517.578 8.80667 517.816 8.20933 517.816 7.5C517.816 6.79067 517.578 6.198 517.102 5.722C516.626 5.23667 516.033 4.994 515.324 4.994C514.624 4.994 514.036 5.23667 513.56 5.722C513.084 6.198 512.846 6.79067 512.846 7.5C512.846 8.20933 513.084 8.80667 513.56 9.292C514.036 9.768 514.624 10.006 515.324 10.006ZM524.169 11.182C523.114 11.182 522.237 10.832 521.537 10.132C520.837 9.42267 520.487 8.54533 520.487 7.5C520.487 6.45467 520.837 5.582 521.537 4.882C522.237 4.17267 523.114 3.818 524.169 3.818C524.86 3.818 525.48 3.986 526.031 4.322C526.582 4.64867 526.992 5.092 527.263 5.652L526.241 6.24C526.064 5.86667 525.788 5.568 525.415 5.344C525.051 5.12 524.636 5.008 524.169 5.008C523.469 5.008 522.881 5.246 522.405 5.722C521.938 6.198 521.705 6.79067 521.705 7.5C521.705 8.2 521.938 8.788 522.405 9.264C522.881 9.74 523.469 9.978 524.169 9.978C524.636 9.978 525.056 9.87067 525.429 9.656C525.802 9.432 526.087 9.13333 526.283 8.76L527.319 9.362C527.02 9.91267 526.591 10.356 526.031 10.692C525.471 11.0187 524.85 11.182 524.169 11.182ZM532.33 5.176H530.468V8.97C530.468 9.31533 530.533 9.56267 530.664 9.712C530.804 9.852 531.014 9.92667 531.294 9.936C531.574 9.936 531.919 9.92667 532.33 9.908V11C531.266 11.14 530.486 11.056 529.992 10.748C529.497 10.4307 529.25 9.838 529.25 8.97V5.176H527.864V4H529.25V2.404L530.468 2.04V4H532.33V5.176Z" fill="black"/>
</svg>
