<svg width="70" height="69" viewBox="0 0 70 69" fill="none" xmlns="http://www.w3.org/2000/svg">
<rect width="69.7778" height="69" rx="15" fill="#F25822" fill-opacity="0.25"/>
<path d="M23.7778 24.7778V44.2222H46V24.7778H23.7778ZM22.3889 22H47.3889C47.7572 22 48.1105 22.1463 48.371 22.4068C48.6314 22.6673 48.7778 23.0205 48.7778 23.3889V45.6111C48.7778 45.9795 48.6314 46.3327 48.371 46.5932C48.1105 46.8537 47.7572 47 47.3889 47H22.3889C22.0205 47 21.6673 46.8537 21.4068 46.5932C21.1463 46.3327 21 45.9795 21 45.6111V23.3889C21 23.0205 21.1463 22.6673 21.4068 22.4068C21.6673 22.1463 22.0205 22 22.3889 22ZM38.7681 31.4347L36.2778 28.9444H43.2222V35.8889L40.7319 33.3986L35.3653 38.7653L32.4194 35.8194L28.4903 39.7472L26.5264 37.7833L32.4194 31.8903L35.3653 34.8375L38.7681 31.4347Z" fill="#F25822"/>
</svg>
